<svg width="13" height="13" viewBox="0 0 13 13" fill="none" xmlns="http://www.w3.org/2000/svg">
<path d="M6.1105 1.09858C7.74201 1.09858 7.93521 1.10468 8.57973 1.134C8.96724 1.13873 9.35107 1.20973 9.71453 1.3439C9.97811 1.44533 10.2175 1.60069 10.4172 1.8C10.617 1.99931 10.7727 2.23814 10.8744 2.50113C11.0088 2.86377 11.08 3.24674 11.0847 3.63339C11.1138 4.27645 11.1202 4.46922 11.1202 6.09706C11.1202 7.7249 11.1141 7.91768 11.0847 8.56074C11.08 8.94738 11.0088 9.33035 10.8744 9.693C10.7727 9.95599 10.617 10.1948 10.4172 10.3941C10.2175 10.5934 9.97811 10.7488 9.71453 10.8502C9.35107 10.9844 8.96724 11.0554 8.57973 11.0601C7.9355 11.0892 7.7423 11.0955 6.1105 11.0955C4.47871 11.0955 4.2855 11.0894 3.64128 11.0601C3.25376 11.0554 2.86993 10.9844 2.50647 10.8502C2.24289 10.7488 2.00352 10.5934 1.80376 10.3941C1.604 10.1948 1.44829 9.95599 1.34664 9.693C1.21216 9.33035 1.141 8.94738 1.13626 8.56074C1.10716 7.91768 1.10076 7.7249 1.10076 6.09706C1.10076 4.46922 1.10687 4.27645 1.13626 3.63339C1.141 3.24674 1.21216 2.86377 1.34664 2.50113C1.44829 2.23814 1.604 1.99931 1.80376 1.8C2.00352 1.60069 2.24289 1.44533 2.50647 1.3439C2.86993 1.20973 3.25376 1.13873 3.64128 1.134C4.28579 1.10497 4.479 1.09858 6.1105 1.09858ZM6.1105 0C4.45194 0 4.24302 0.00696772 3.59123 0.0365806C3.08407 0.0466455 2.5823 0.142456 2.10725 0.319936C1.69974 0.473129 1.33063 0.713196 1.02569 1.02339C0.714521 1.32775 0.473707 1.69624 0.320074 2.1031C0.142194 2.57708 0.0461686 3.07772 0.0360811 3.58374C0.00698345 4.23348 0 4.44194 0 6.09677C0 7.75161 0.00698341 7.96006 0.036663 8.61039C0.0467505 9.1164 0.142776 9.61705 0.320656 10.091C0.474119 10.4978 0.714731 10.8663 1.02569 11.1707C1.3308 11.481 1.70011 11.7211 2.10783 11.8742C2.58288 12.0517 3.08465 12.1475 3.59181 12.1575C4.2436 12.1866 4.45165 12.1941 6.11108 12.1941C7.77052 12.1941 7.97857 12.1872 8.63036 12.1575C9.13751 12.1475 9.63929 12.0517 10.1143 11.8742C10.5201 11.7173 10.8886 11.4775 11.1963 11.1704C11.5039 10.8633 11.7439 10.4954 11.9009 10.0905C12.0788 9.61647 12.1748 9.11582 12.1849 8.60981C12.214 7.96006 12.221 7.75161 12.221 6.09677C12.221 4.44194 12.214 4.23348 12.1843 3.58316C12.1743 3.07714 12.0782 2.5765 11.9003 2.10252C11.7469 1.69571 11.5063 1.32723 11.1953 1.02281C10.8902 0.712545 10.5209 0.472473 10.1132 0.319355C9.63812 0.141875 9.13635 0.0460649 8.62919 0.036C7.97799 0.00696776 7.76907 0 6.1105 0Z" fill="white"/>
<path d="M6.11201 2.96729C5.49139 2.96729 4.88472 3.15091 4.36869 3.49493C3.85267 3.83895 3.45048 4.32792 3.21298 4.9C2.97548 5.47209 2.91334 6.1016 3.03442 6.70892C3.15549 7.31624 3.45435 7.8741 3.89319 8.31196C4.33203 8.74982 4.89115 9.048 5.49984 9.1688C6.10853 9.28961 6.73945 9.22761 7.31283 8.99064C7.8862 8.75367 8.37627 8.35239 8.72107 7.83752C9.06586 7.32266 9.2499 6.71734 9.2499 6.09812C9.2499 5.26777 8.9193 4.47143 8.33083 3.88429C7.74236 3.29714 6.94423 2.96729 6.11201 2.96729ZM6.11201 8.13038C5.70916 8.13038 5.31536 8.01119 4.98041 7.78788C4.64545 7.56458 4.38438 7.24718 4.23022 6.87583C4.07606 6.50449 4.03572 6.09587 4.11431 5.70165C4.19291 5.30743 4.3869 4.94532 4.67175 4.6611C4.95661 4.37688 5.31954 4.18333 5.71464 4.10491C6.10975 4.0265 6.51929 4.06675 6.89147 4.22056C7.26366 4.37438 7.58177 4.63486 7.80558 4.96906C8.02939 5.30326 8.14884 5.69618 8.14884 6.09812C8.14884 6.63711 7.93425 7.15402 7.55227 7.53515C7.17029 7.91627 6.65221 8.13038 6.11201 8.13038Z" fill="white"/>
<path d="M9.37291 3.57407C9.77788 3.57407 10.1062 3.24651 10.1062 2.84245C10.1062 2.43839 9.77788 2.11084 9.37291 2.11084C8.96794 2.11084 8.63965 2.43839 8.63965 2.84245C8.63965 3.24651 8.96794 3.57407 9.37291 3.57407Z" fill="white"/>
</svg>
