<svg width="12" height="12" viewBox="0 0 12 12" fill="none" xmlns="http://www.w3.org/2000/svg">
<path fill-rule="evenodd" clip-rule="evenodd" d="M5.84504 0C2.60591 0 0 2.60006 0 5.83191C0 8.40767 1.68045 10.5946 3.99411 11.3722C4.28636 11.4208 4.38378 11.2507 4.38378 11.0806C4.38378 10.9348 4.38378 10.5703 4.38378 10.0843C2.75204 10.4488 2.41108 9.30675 2.41108 9.30675C2.14318 8.62636 1.75351 8.45627 1.75351 8.45627C1.21772 8.09177 1.80222 8.09177 1.80222 8.09177C2.38672 8.14037 2.70333 8.69926 2.70333 8.69926C3.21477 9.59835 4.06717 9.33105 4.40813 9.18525C4.45684 8.79646 4.60297 8.55346 4.77345 8.40767C3.48267 8.26187 2.11883 7.75158 2.11883 5.51601C2.11883 4.88422 2.33801 4.34963 2.72768 3.96084C2.67898 3.81504 2.45979 3.23185 2.77639 2.40566C2.77639 2.40566 3.26348 2.25986 4.38378 3.01315C4.84651 2.89165 5.35795 2.81875 5.84504 2.81875C6.33212 2.81875 6.84356 2.89165 7.3063 3.01315C8.42659 2.25986 8.91368 2.40566 8.91368 2.40566C9.23029 3.20755 9.03545 3.79074 8.96239 3.96084C9.3277 4.37393 9.57125 4.88422 9.57125 5.51601C9.57125 7.75158 8.20741 8.23757 6.89227 8.38337C7.11146 8.55346 7.28194 8.91796 7.28194 9.45255C7.28194 10.2301 7.28194 10.8619 7.28194 11.0563C7.28194 11.2021 7.37936 11.3965 7.69597 11.3479C10.0096 10.5946 11.6901 8.40767 11.6901 5.83191C11.6901 2.60006 9.08416 0 5.84504 0Z" fill="white"/>
</svg>
